# xmcd
#
# Track frame offsets:
#	150
#	13087
#	29807
#	47147
#	61442
#	77305
#	91120
#	102365
#	116007
#	129432
#	142402
#	153277
#	166727
#	179635
#	192907
#	206270
#	218177
#	232750
#	245547
#
# Disc length: 3472 seconds
#
# Revision: 0
# Processed by: cddbd v1.5.2PL0 Copyright (c) Steve Scherf et al.
# Submitted via: audiograbber 1.83.01
#
DISCID=040d8e13
DTITLE=Various Artist - SAVC3
DYEAR=1900
DGENRE=Country
TTITLE0=Don Gibson - Oh Lonesome Me
TTITLE1=Kenny Rogers - The Gambler
TTITLE2=Kenny Rogers - Lucille
TTITLE3=Glen Campbell - Gentle On My Mind
TTITLE4=Glen Campbell - Southern Nights
TTITLE5=Eddy Arnold - Make The World Go Away
TTITLE6=Eddy Arnold - Welcome To My World
TTITLE7=Ernest Tubb - Walking The Floor Over You
TTITLE8=Johnny Cash - Folsom Prison Blues
TTITLE9=Johnny Cash - Ring Of Fire
TTITLE10=George Hamilton - Abilene
TTITLE11=George Morgan - Candy Kisses
TTITLE12=Kitty Wells - Making Believe
TTITLE13=Leon Payne - I Love You Because
TTITLE14=Patsy Cline - Crazy
TTITLE15=Porter Wagoner - Satisfied Mind
TTITLE16=Red Foley - Peace In The Valley (There'llBe)
TTITLE17=Stewart Wynn - It's Such A Pretty World Today
TTITLE18=Jack Greene - There Goes My Everything
EXTD=MediaType: Karaoke CD+G Producer: Other
EXTT0=
EXTT1=
EXTT2=
EXTT3=
EXTT4=
EXTT5=
EXTT6=
EXTT7=
EXTT8=
EXTT9=
EXTT10=
EXTT11=
EXTT12=
EXTT13=
EXTT14=
EXTT15=
EXTT16=
EXTT17=
EXTT18=
PLAYORDER=
